<svg width="17.845px" height="17.845px" viewBox="0 0 17.845 17.845" role="img" xmlns="http://www.w3.org/2000/svg"><path d="M10.025 0a1.019 1.019 0 0 0 -0.715 0.326L5.291 4.629l-2.866 3.068a3.941 3.941 0 0 0 -0.899 1.564 3.718 3.718 0 0 0 -0.093 0.381 4.089 4.089 0 0 0 0.046 1.756 4.461 4.461 0 0 0 0.259 0.756 4.387 4.387 0 0 0 0.945 1.352l3.18 3.118 0.029 0.028c1.671 1.61 4.351 1.586 5.995 -0.055l1.782 -1.779c0.402 -0.402 0.402 -1.051 0.002 -1.454a1.026 1.026 0 0 0 -1.451 -0.002l-1.782 1.779a2.245 2.245 0 0 1 -3.127 0.028l-0.015 -0.014 -3.179 -3.118c-0.485 -0.476 -0.723 -1.092 -0.705 -1.683a2.008 2.008 0 0 1 0.049 -0.389 1.896 1.896 0 0 1 0.46 -0.865L6.789 6.033c0.787 -0.843 2.382 -0.944 3.294 -0.207l2.603 2.105c0.441 0.357 1.086 0.288 1.442 -0.154a1.029 1.029 0 0 0 -0.154 -1.445l-2.602 -2.105c-0.595 -0.481 -1.313 -0.777 -2.063 -0.894l1.498 -1.605A1.029 1.029 0 0 0 10.025 0m-2.131 9.528a1.026 1.026 0 0 0 -1.026 1.028 1.026 1.026 0 0 0 1.026 1.028H15.458a1.026 1.026 0 0 0 1.026 -1.028 1.026 1.026 0 0 0 -1.026 -1.028z" fill="#8c8c8e"/></svg>